<?xml version="1.0" encoding="UTF-8" standalone="no"?>
<!-- Uploaded to: SVG Repo, www.svgrepo.com, Generator: SVG Repo Mixer Tools -->

<svg
   width="800px"
   height="800px"
   viewBox="0 0 24 24"
   fill="none"
   version="1.1"
   id="svg4"
   sodipodi:docname="bookmark-col-svgrepo-com.svg"
   inkscape:version="1.1.2 (b8e25be833, 2022-02-05)"
   xmlns:inkscape="http://www.inkscape.org/namespaces/inkscape"
   xmlns:sodipodi="http://sodipodi.sourceforge.net/DTD/sodipodi-0.dtd"
   xmlns="http://www.w3.org/2000/svg"
   xmlns:svg="http://www.w3.org/2000/svg">
  <defs
     id="defs8" />
  <sodipodi:namedview
     id="namedview6"
     pagecolor="#505050"
     bordercolor="#ffffff"
     borderopacity="1"
     inkscape:pageshadow="0"
     inkscape:pageopacity="0"
     inkscape:pagecheckerboard="1"
     showgrid="false"
     inkscape:zoom="0.75875"
     inkscape:cx="400"
     inkscape:cy="400"
     inkscape:window-width="1440"
     inkscape:window-height="838"
     inkscape:window-x="-8"
     inkscape:window-y="-8"
     inkscape:window-maximized="1"
     inkscape:current-layer="svg4" />
  <path
     d="M5 6.2C5 5.07989 5 4.51984 5.21799 4.09202C5.40973 3.71569 5.71569 3.40973 6.09202 3.21799C6.51984 3 7.07989 3 8.2 3H15.8C16.9201 3 17.4802 3 17.908 3.21799C18.2843 3.40973 18.5903 3.71569 18.782 4.09202C19 4.51984 19 5.07989 19 6.2V21L12 16L5 21V6.2Z"
     stroke="rgb(255,59,59)"
     stroke-width="2"
     stroke-linejoin="round"
     id="path2" />
  <path
     style="fill:#ff3b3b;fill-opacity:1;stroke-width:0.0407914"
     d="M 5.8498292,11.865217 5.860781,4.4893048 5.9513776,4.3198874 c 0.1124123,-0.2102136 0.347194,-0.4082314 0.562065,-0.4740531 0.2367133,-0.072513 10.7361624,-0.072513 10.9728754,0 0.214871,0.065822 0.449653,0.2638395 0.562065,0.4740531 l 0.0906,0.1694174 0.01095,7.3763532 0.01095,7.376352 -0.133326,-0.09432 c -0.07333,-0.05187 -1.324096,-0.944393 -2.779481,-1.983374 -1.455385,-1.03898 -2.721219,-1.92735 -2.812964,-1.974154 -0.200105,-0.102086 -0.599118,-0.118086 -0.806273,-0.03233 -0.07637,0.03161 -1.387485,0.949155 -2.9135915,2.03898 -1.5261067,1.089826 -2.7976066,1.995634 -2.8255555,2.012907 -0.040504,0.02503 -0.048593,-1.465371 -0.039864,-7.344505 z"
     id="path2734" />
</svg>
