<?xml version="1.0" encoding="UTF-8" standalone="no"?>
<!-- Uploaded to: SVG Repo, www.svgrepo.com, Generator: SVG Repo Mixer Tools -->

<svg
   width="800px"
   height="800px"
   viewBox="0 0 24 24"
   fill="none"
   version="1.1"
   id="svg4"
   sodipodi:docname="comment-circle-list-svgrepo-com.svg"
   inkscape:version="1.1.2 (b8e25be833, 2022-02-05)"
   xmlns:inkscape="http://www.inkscape.org/namespaces/inkscape"
   xmlns:sodipodi="http://sodipodi.sourceforge.net/DTD/sodipodi-0.dtd"
   xmlns="http://www.w3.org/2000/svg"
   xmlns:svg="http://www.w3.org/2000/svg"
   xmlns:rdf="http://www.w3.org/1999/02/22-rdf-syntax-ns#"
   xmlns:cc="http://creativecommons.org/ns#"
   xmlns:dc="http://purl.org/dc/elements/1.1/">
  <title
     id="title2961">comment</title>
  <defs
     id="defs8" />
  <sodipodi:namedview
     id="namedview6"
     pagecolor="#505050"
     bordercolor="#ffffff"
     borderopacity="1"
     inkscape:pageshadow="0"
     inkscape:pageopacity="0"
     inkscape:pagecheckerboard="1"
     showgrid="false"
     inkscape:zoom="0.66449955"
     inkscape:cx="416.10262"
     inkscape:cy="395.03413"
     inkscape:window-width="1440"
     inkscape:window-height="838"
     inkscape:window-x="-8"
     inkscape:window-y="-8"
     inkscape:window-maximized="1"
     inkscape:current-layer="svg4" />
  <path
     d="m 3.00391,12 c 0,4.9706 4.0294,9 9,9 l 2.184307,-0.09483 2.29035,-0.80811 4.434319,0.857788 c 0,0 -1.468896,-3.698753 -0.844896,-4.954053 0.59906,-1.2052 0.93591,-2.5636 0.93591,-4.0008 0,-4.97056 -4.02943,-9 -8.99999,-9 -4.9706,0 -9,4.02944 -9,9 z"
     stroke="#000000"
     stroke-width="2"
     stroke-linecap="round"
     stroke-linejoin="round"
     id="path2"
     sodipodi:nodetypes="ssccccsss" />
  <path
     style="fill:#ffffff;stroke-width:1.50489"
     d="M 358.16428,729.80769 C 268.47767,717.98522 188.49136,671.41686 134.50141,599.59027 100.7731,554.71913 79.40977,503.11598 70.687638,445.44801 67.289047,422.97759 67.26453,379.13167 70.637192,355.22972 91.479934,207.51789 204.97576,93.382387 353.6496,70.622195 c 20.34664,-3.114828 66.16236,-3.541574 86.53129,-0.805987 119.77869,16.086511 218.6756,90.408972 265.54301,199.559442 18.04272,42.02005 26.40602,83.48676 26.40602,130.9256 0,48.94152 -9.82896,95.01496 -29.22595,136.99721 -2.97996,6.44974 -5.82506,15.18931 -6.32244,19.42126 -2.0743,17.64893 8.60897,66.90982 24.15132,111.3625 5.72906,16.38567 8.38729,26.30147 8.38729,31.28646 0,16.67844 -14.6856,31.25635 -31.48725,31.25635 -3.30042,0 -37.44538,-6.09599 -75.8777,-13.54663 l -69.87694,-13.54662 -36.20896,12.7418 -36.20896,12.74182 -31.30264,1.55499 c -40.19162,1.99657 -71.04499,1.73508 -89.99341,-0.7627 z m 77.26,-63.98222 32.11325,-1.58586 38.26545,-13.45894 c 21.04599,-7.40241 40.08612,-13.45894 42.31142,-13.45894 2.22528,0 25.32002,4.09495 51.32161,9.09987 26.00162,5.00492 47.50726,8.86827 47.79032,8.58521 0.28307,-0.28307 -1.15748,-6.5789 -3.20121,-13.99077 -6.48022,-23.50129 -11.43921,-52.00816 -12.2992,-70.70202 -1.06997,-23.25855 1.54955,-36.623 11.56248,-58.9901 14.79408,-33.04736 22.12516,-64.21031 23.63988,-100.48843 5.7453,-137.6018 -92.70903,-255.66551 -229.75718,-275.51841 -23.55386,-3.41203 -67.80341,-2.2432 -89.54107,2.36519 -106.59056,22.59724 -186.9191,102.76131 -209.5365,209.10749 -3.6584,17.20168 -4.02561,21.9399 -4.08876,52.75905 -0.0614,29.94239 0.34388,35.86243 3.50248,51.16632 24.06788,116.61278 116.43932,201.69549 233.44861,215.02791 16.26111,1.85286 28.30565,1.86825 64.46842,0.0825 z"
     id="path2546"
     transform="scale(0.03)" />
  <path
     style="fill:#dddddd;stroke-width:1.50489"
     d="M 353.36989,728.40026 C 226.84234,708.89349 124.56251,622.45832 84.827463,501.45903 65.361961,442.18361 63.596012,377.15914 79.780841,315.63603 101.26112,233.98341 153.85486,163.17554 226.62133,117.94215 c 31.5,-19.581166 76.6259,-36.957038 115.25678,-44.379986 18.86185,-3.624316 24.23773,-4.006237 57.6707,-4.09712 39.17343,-0.106488 48.44153,0.9193 79.87692,8.840727 95.31323,24.018049 174.68375,87.767199 217.28024,174.516069 24.30873,49.50535 33.9201,90.82687 33.95361,145.97452 0.0304,50.06095 -6.31636,83.11113 -24.86286,129.47071 -8.77033,21.92267 -9.78421,25.54494 -9.78421,34.95596 0,20.47808 7.08704,52.30174 21.96043,98.61127 6.47932,20.17392 9.6423,32.45126 9.6423,37.42725 0,16.59814 -13.20574,29.85859 -29.73538,29.85859 -6.17784,0 -93.7121,-15.72457 -129.50533,-23.26422 -6.05485,-1.27542 -12.82687,-2.31707 -15.04892,-2.31476 -2.22203,0.003 -20.63149,5.81336 -40.90991,12.9135 l -36.86985,12.90933 -54.17611,0.58375 c -41.63425,0.44859 -57.37634,0.0903 -67.99985,-1.54748 z m 93.58301,-62.33761 21.06849,-1.16435 38.12499,-13.03584 c 20.96876,-7.16971 40.269,-13.04159 42.88942,-13.04863 2.62044,-0.008 25.57397,3.84485 51.00784,8.55973 25.43388,4.71489 46.68685,8.12908 47.22883,7.58711 0.54197,-0.54197 -0.83511,-8.11693 -3.06019,-16.83325 -7.5309,-29.50094 -10.0048,-44.87585 -10.90511,-67.77338 -1.04916,-26.68338 -0.0533,-31.75131 12.27234,-62.45302 17.28812,-43.06269 21.07538,-62.54911 21.05863,-108.35221 -0.0105,-29.31337 -0.47717,-36.16897 -3.47381,-51.05485 -21.30191,-105.81813 -99.45495,-185.62591 -205.79552,-210.15284 -15.49822,-3.57459 -22.08266,-4.23075 -48.37023,-4.8203 -44.23665,-0.99208 -69.32976,2.79534 -102.84608,15.52304 -86.34397,32.78881 -146.94985,103.21079 -168.66435,195.98224 -3.91424,16.72295 -5.66529,73.04416 -2.87529,92.48166 8.4288,58.72212 36.15262,112.8621 79.27939,154.81931 35.15097,34.19772 74.47326,55.91042 123.7596,68.33671 25.41708,6.40826 60.06698,8.11978 109.30105,5.39887 z"
     id="path2585"
     transform="scale(0.03)" />
  <path
     style="fill:#dddddd;stroke-width:1.50489"
     d="m 400.96861,728.95956 c -54.02548,-0.98009 -57.73262,-1.43088 -91.38635,-11.11279 -74.68013,-21.48488 -140.72287,-69.74282 -184.042,-134.48091 -13.77486,-20.58578 -30.930701,-55.44682 -38.408289,-78.04649 -3.227294,-9.75392 -6.206408,-18.07299 -6.620253,-18.48683 -0.413845,-0.41385 -0.943704,-3.09626 -1.177464,-5.96091 -0.23376,-2.86465 -0.910961,-5.57346 -1.504892,-6.01957 -0.593931,-0.44611 -1.100763,-1.82691 -1.126294,-3.06844 -0.137911,-6.70636 -2.752275,-19.5636 -3.978023,-19.5636 -0.781169,0 -1.032152,-0.62805 -0.55774,-1.39566 0.474412,-0.76762 0.185785,-7.03173 -0.641392,-13.92025 -3.267153,-27.20801 -1.718866,-67.60438 3.733617,-97.41383 15.585599,-85.20853 68.62291,-165.72878 140.46081,-213.24496 7.16278,-4.73772 13.86973,-9.64616 14.90435,-10.90764 1.03461,-1.26148 1.88111,-1.8118 1.88111,-1.22294 0,0.58887 2.70881,-0.31127 6.01957,-2.00029 3.31076,-1.68903 6.01957,-3.84726 6.01957,-4.79608 0,-0.94882 0.39356,-1.33157 0.87457,-0.85055 0.481,0.48101 8.43812,-2.50445 17.68248,-6.634348 22.46692,-10.037063 51.7806,-19.694271 74.74625,-24.624684 15.96318,-3.427079 23.73303,-4.159667 51.32075,-4.838825 37.88379,-0.932627 57.76812,0.748703 83.4927,7.059773 19.06277,4.676709 50.13226,14.949776 59.19204,19.57173 3.0012,1.531104 6.79674,3.018384 8.43449,3.305054 1.63778,0.28668 3.65497,1.05211 4.48266,1.70096 0.82769,0.64885 10.04732,6.11916 20.48805,12.15626 64.6986,37.41033 112.67864,92.86206 142.11108,164.24127 2.38903,5.79383 4.70483,10.87284 5.14622,11.28668 0.4414,0.41385 0.89917,1.76825 1.01727,3.00979 0.17845,1.87582 8.28177,31.49791 10.70352,39.12719 0.3941,1.24153 0.93186,4.28894 1.19502,6.77201 0.26316,2.48307 1.20065,10.25312 2.08328,17.26679 0.88265,7.01365 1.60482,17.67957 1.60482,23.70204 0,6.02246 0.56385,10.94994 1.253,10.94994 0.68915,0 0.68841,3.89391 -0.002,8.65313 -0.69005,4.75922 -1.18723,14.74794 -1.10487,22.19716 0.0823,7.44921 -0.23379,14.55983 -0.70256,15.80136 -0.46876,1.24154 -1.14027,6.32055 -1.49222,11.28669 -0.35195,4.96615 -0.99928,10.04516 -1.4385,11.28669 -0.43922,1.24154 -1.89604,7.43319 -3.2374,13.75923 -1.34134,6.32604 -4.066,16.77584 -6.05481,23.22179 -1.98879,6.44595 -3.27315,12.27462 -2.85413,12.95261 0.41901,0.67798 0.11091,1.2327 -0.68465,1.2327 -1.79161,0 -5.0196,8.88169 -3.89143,10.70711 0.45279,0.73261 0.18453,1.33202 -0.5961,1.33202 -1.19597,0 -7.2032,14.21381 -10.49429,24.83072 -1.25517,4.04909 -1.13079,32.84466 0.18035,41.75366 1.5567,10.57759 10.33025,43.72921 18.89193,71.38475 4.14604,13.39239 8.14351,27.67985 8.88329,31.74994 3.51443,19.33608 -9.34698,35.47897 -28.06115,35.2207 -3.00793,-0.0415 -13.79405,-1.49588 -23.96914,-3.23192 -10.17508,-1.73605 -19.10025,-2.78557 -19.83368,-2.33229 -0.73343,0.45329 -1.71967,0.19936 -2.19163,-0.56429 -0.74268,-1.20168 -9.85584,-3.0566 -19.6659,-4.00286 -1.65538,-0.15967 -4.02558,-0.65119 -5.26712,-1.09228 -4.84116,-1.71994 -27.51093,-5.52092 -28.66687,-4.8065 -0.67265,0.41572 -1.64195,0.0779 -2.15401,-0.75055 -0.51205,-0.82854 -2.42116,-1.47558 -4.24244,-1.4379 -1.82128,0.0376 -9.40624,-1.30039 -16.85545,-2.9735 -7.44922,-1.67311 -16.31611,-3.0687 -19.70423,-3.10132 -5.18883,-0.05 -17.33995,3.17685 -26.19497,6.95627 -1.24154,0.5299 -2.98481,1.12239 -3.87391,1.31663 -6.85208,1.49691 -23.21415,7.56313 -23.21415,8.60661 0,0.71362 -0.60649,0.92267 -1.34776,0.46453 -0.74127,-0.45813 -5.98958,0.96568 -11.66292,3.16401 -13.69665,5.30725 -25.88239,5.98032 -87.90216,4.85521 z m 61.69124,-62.98045 c 2.01729,-0.0283 21.28671,-5.88855 42.82093,-13.02271 21.53422,-7.13415 41.59323,-12.93753 44.57558,-12.89637 2.98236,0.0412 22.65202,3.11848 43.71035,6.83847 50.73218,8.96195 54.08926,9.34949 54.08926,6.24408 0,-1.34236 -2.06427,-11.03811 -4.58727,-21.54611 -6.70945,-27.94415 -8.93907,-45.09711 -8.93858,-68.76689 5e-4,-23.42518 -1.68502,-16.7852 18.65559,-73.49173 3.81067,-10.62359 6.57456,-19.8883 6.14196,-20.58828 -0.43261,-0.69997 -0.16063,-1.6595 0.60437,-2.13229 0.76501,-0.47281 2.5924,-7.46091 4.06089,-15.52913 2.87183,-15.77854 3.98865,-75.02067 1.75028,-92.84353 -1.31955,-10.50691 -9.30057,-41.14898 -12.73139,-48.88054 -1.31202,-2.95675 -2.64482,-6.73031 -2.96175,-8.3857 -0.31694,-1.65538 -1.23809,-3.23691 -2.04699,-3.51454 -0.80891,-0.27762 -1.13629,-1.04591 -0.72751,-1.70734 1.05626,-1.70906 -13.94766,-30.75423 -22.64464,-43.83634 -4.02623,-6.05632 -11.2666,-15.91687 -16.0897,-21.91234 -10.124,-12.58485 -38.27344,-39.63899 -41.24379,-39.63899 -1.10578,0 -2.01052,-0.6032 -2.01052,-1.34043 0,-1.67882 -27.07959,-20.33915 -27.1111,-18.68206 -0.012,0.66624 -0.52057,0.45933 -1.12867,-0.4598 -1.33457,-2.01717 -11.1817,-7.35019 -12.76854,-6.91518 -0.62077,0.17018 -1.12867,-0.294 -1.12867,-1.0315 0,-3.30888 -53.29088,-22.54359 -69.22503,-24.98594 -2.89691,-0.44404 -10.00753,-1.53724 -15.80136,-2.42934 -15.0564,-2.31829 -78.02497,-0.77367 -92.55085,2.27027 -13.92247,2.9175 -37.6223,10.06983 -37.6223,11.35396 0,0.52109 -1.51844,1.06182 -3.3743,1.20162 -5.98285,0.45067 -45.10124,21.12511 -59.79554,31.60251 -15.35452,10.94813 -50.17284,43.54598 -48.83109,45.71697 0.4491,0.72666 0.13897,1.32122 -0.6892,1.32122 -0.82816,0 -4.63231,4.0632 -8.45367,9.02935 -3.82136,4.96614 -6.60208,9.02935 -6.17938,9.02935 0.4227,0 -0.87944,1.77819 -2.89363,3.95156 -2.0142,2.17335 -3.2963,4.54355 -2.84912,5.26712 0.44719,0.72355 0.20353,1.31556 -0.54147,1.31556 -1.52756,0 -10.22468,15.18314 -9.69777,16.93004 0.18724,0.62076 -0.25461,1.12867 -0.98188,1.12867 -1.36728,0 -5.22802,8.11055 -4.72456,9.92521 0.15641,0.56373 -0.35782,1.43928 -1.14273,1.94567 -1.58373,1.02175 -12.05051,26.54962 -12.76223,31.12633 -0.2482,1.59609 -0.86469,3.57919 -1.36996,4.40688 -2.3433,3.83854 -7.44457,25.66401 -8.65674,37.03732 -1.50858,14.15441 -1.19675,77.06639 0.42807,86.36382 9.14212,52.3124 35.21473,103.30245 71.94756,140.70739 13.23713,13.47934 22.96447,22.57338 24.14536,22.57338 0.47266,0 3.01275,2.01155 5.64464,4.4701 5.73482,5.35713 27.06769,19.01174 28.87091,18.4795 0.70106,-0.20692 1.27465,0.23382 1.27465,0.97942 0,1.92865 25.42197,14.02079 41.02159,19.51222 7.24959,2.55202 13.3444,4.60936 13.54403,4.57187 0.19961,-0.0375 2.3082,0.67144 4.68576,1.57538 2.37757,0.90395 6.10217,1.87832 8.27691,2.16527 2.17473,0.28696 4.96987,0.89281 6.21141,1.34634 4.11931,1.50482 10.0849,2.54239 19.76104,3.43696 5.26318,0.48659 9.8779,1.1932 10.25493,1.57024 0.37704,0.37703 20.35783,0.35003 44.40178,-0.0601 24.04394,-0.41002 45.36679,-0.76867 47.38408,-0.79699 z"
     id="path2920"
     transform="scale(0.03)" />
  <metadata
     id="metadata2959">
    <rdf:RDF>
      <cc:Work
         rdf:about="">
        <dc:title>comment</dc:title>
      </cc:Work>
    </rdf:RDF>
  </metadata>
</svg>
