<?xml version="1.0" encoding="UTF-8" standalone="no"?>
<!-- Uploaded to: SVG Repo, www.svgrepo.com, Generator: SVG Repo Mixer Tools -->

<svg
   width="800px"
   height="800px"
   viewBox="0 0 24 24"
   fill="none"
   version="1.1"
   id="svg4"
   sodipodi:docname="heart-col-alt-svgrepo-com.svg"
   inkscape:version="1.1.2 (b8e25be833, 2022-02-05)"
   xmlns:inkscape="http://www.inkscape.org/namespaces/inkscape"
   xmlns:sodipodi="http://sodipodi.sourceforge.net/DTD/sodipodi-0.dtd"
   xmlns="http://www.w3.org/2000/svg"
   xmlns:svg="http://www.w3.org/2000/svg">
  <defs
     id="defs8" />
  <sodipodi:namedview
     id="namedview6"
     pagecolor="#505050"
     bordercolor="#ffffff"
     borderopacity="1"
     inkscape:pageshadow="0"
     inkscape:pageopacity="0"
     inkscape:pagecheckerboard="1"
     showgrid="false"
     inkscape:zoom="0.75875"
     inkscape:cx="335.4201"
     inkscape:cy="385.50247"
     inkscape:window-width="1440"
     inkscape:window-height="838"
     inkscape:window-x="-4"
     inkscape:window-y="-4"
     inkscape:window-maximized="1"
     inkscape:current-layer="svg4" />
  <path
     d="M15.7 4C18.87 4 21 6.98 21 9.76C21 15.39 12.16 20 12 20C11.84 20 3 15.39 3 9.76C3 6.98 5.13 4 8.3 4C10.12 4 11.31 4.91 12 5.71C12.69 4.91 13.88 4 15.7 4Z"
     stroke="rgb(255,59,59)"
     stroke-width="2"
     stroke-linecap="round"
     stroke-linejoin="round"
     id="path2" />
  <path
     style="mix-blend-mode:normal;fill:#ff3b3b;fill-opacity:1;fill-rule:nonzero;stroke-width:0.0405116;stroke-miterlimit:4;stroke-dasharray:none"
     d="M 11.256562,18.604787 C 8.8819011,17.184962 6.7425728,15.39464 5.5028461,13.789725 4.6781712,12.722123 4.1295573,11.628224 3.9144862,10.622641 3.8147994,10.156548 3.813723,9.2723215 3.91227,8.8013192 4.2925386,6.9838229 5.4984154,5.5236738 7.0172558,5.0416126 7.4492646,4.9044984 7.741056,4.8617574 8.2325639,4.8635971 9.344542,4.8677582 10.225373,5.24681 11.048028,6.0751866 c 0.420473,0.4233978 0.579243,0.5085188 0.951992,0.5103898 0.358004,0.0018 0.562932,-0.1040309 0.921591,-0.4759227 0.731413,-0.7583979 1.50353,-1.1419649 2.483527,-1.2337479 1.193319,-0.1117626 2.283766,0.2819028 3.196592,1.1540108 0.733111,0.700411 1.317894,1.808936 1.504744,2.8524233 0.07883,0.4402141 0.06801,1.3208071 -0.02139,1.7408541 -0.146416,0.687962 -0.50586,1.551501 -0.926858,2.226706 -1.014279,1.62672 -2.821231,3.363853 -5.152949,4.953841 -0.68439,0.466683 -1.913787,1.206168 -2.005258,1.206168 -0.03624,0 -0.370796,-0.182305 -0.743457,-0.405122 z"
     id="path1016" />
</svg>
