<?xml version="1.0" encoding="UTF-8" standalone="no"?>
<!-- Uploaded to: SVG Repo, www.svgrepo.com, Generator: SVG Repo Mixer Tools -->

<svg
   width="800px"
   height="800px"
   viewBox="0 0 24 24"
   fill="none"
   version="1.1"
   id="svg4"
   xmlns="http://www.w3.org/2000/svg"
   xmlns:svg="http://www.w3.org/2000/svg">
  <defs
     id="defs8" />
  <path
     d="M19 10V12C19 15.866 15.866 19 12 19M5 10V12C5 15.866 8.13401 19 12 19M12 19V22M8 22H16M15 6H13M15 10H13M12 15C10.3431 15 9 13.6569 9 12V5C9 3.34315 10.3431 2 12 2C13.6569 2 15 3.34315 15 5V12C15 13.6569 13.6569 15 12 15Z"
     stroke="#000000"
     stroke-width="2"
     stroke-linecap="round"
     stroke-linejoin="round"
     id="path2"
     style="fill:none;fill-opacity:1;stroke:#dddddd;stroke-opacity:1" />
</svg>
